<svg width="19" height="16" viewBox="0 0 19 16" fill="none" xmlns="http://www.w3.org/2000/svg">
<g id="eye-slash.1">
<path id="Shape" fill-rule="evenodd" clip-rule="evenodd" d="M18.4388 8.76153C17.4078 10.5238 15.8507 11.941 13.9852 12.8081L15.4779 14.9563C15.5959 15.1259 15.5549 15.3598 15.3865 15.4785L14.7431 15.9322C14.5747 16.051 14.3425 16.0097 14.2247 15.84L3.94241 1.04373C3.82449 0.874074 3.86547 0.64023 4.0339 0.521481L4.67723 0.067825C4.84566 -0.0509561 5.07781 -0.00967486 5.1957 0.159981L6.91831 2.63888C7.8057 2.38573 8.74249 2.25001 9.71017 2.25001C13.4287 2.25001 16.6903 4.24982 18.4388 7.23847C18.7137 7.7084 18.7137 8.2916 18.4388 8.76153ZM2.26453 8C3.75081 10.5406 6.52853 12.25 9.71017 12.25C9.78906 12.2499 9.86794 12.2487 9.94679 12.2465L10.9402 13.676C10.532 13.7253 10.1213 13.75 9.71017 13.75C5.9917 13.75 2.73001 11.7502 0.981587 8.76156C0.706658 8.29163 0.706658 7.7084 0.981587 7.23847C1.76571 5.89816 2.85401 4.75732 4.15086 3.90623L5.00527 5.13569C3.88086 5.86432 2.93945 6.84635 2.26453 8ZM9.23558 11.2231C6.73871 10.9415 5.0098 8.50791 5.608 6.00303L9.23558 11.2231ZM10.4497 3.78104C13.3189 4.02282 15.7859 5.65835 17.1558 8C16.2347 9.57456 14.8174 10.8297 13.1155 11.5566L12.2873 10.3649C13.9523 9.06931 14.3833 6.7886 13.433 4.99869L13.433 5C13.433 5.9665 12.6552 6.75 11.6957 6.75C10.7362 6.75 9.95836 5.9665 9.95836 5C9.95836 4.52594 10.1458 4.09619 10.4497 3.78104Z" fill="#828FA3"/>
</g>
</svg>
